<?xml version="1.0" encoding="utf-8"?>
<!-- Generator: Adobe Illustrator 24.3.0, SVG Export Plug-In . SVG Version: 6.00 Build 0)  -->
<svg version="1.1" id="Layer_1" xmlns="http://www.w3.org/2000/svg" xmlns:xlink="http://www.w3.org/1999/xlink" x="0px" y="0px"
	 viewBox="0 0 144 144" style="enable-background:new 0 0 144 144;" xml:space="preserve">
<style type="text/css">
	.st0{fill:#CCDCDF;}
	.st1{fill:#FFFFFF;}
</style>
<g>
	<path class="st0" d="M45.35,73.98C40.86,67.81,38.5,60.58,38.5,53c0-19.58,15.92-35.5,35.5-35.5s35.5,15.92,35.5,35.5
		c0,7.58-2.36,14.81-6.81,20.92L74,125.25L45.35,73.98z"/>
	<path class="st0" d="M74,18c19.3,0,35,15.7,35,35c0,7.47-2.32,14.61-6.72,20.63l-0.04,0.05l-0.03,0.05L74,124.23l-28.22-50.5
		l-0.03-0.05l-0.04-0.05C41.32,67.61,39,60.47,39,53C39,33.7,54.7,18,74,18 M74,17c-19.88,0-36,16.12-36,36
		c0,7.93,2.57,15.27,6.91,21.22L74,126.28l29.09-52.06C107.43,68.27,110,60.93,110,53C110,33.12,93.88,17,74,17L74,17z"/>
</g>
<g>
	<circle class="st1" cx="74.5" cy="52.5" r="15.97"/>
	<path class="st0" d="M74.5,37.06c8.51,0,15.44,6.92,15.44,15.44S83.01,67.94,74.5,67.94S59.06,61.01,59.06,52.5
		S65.99,37.06,74.5,37.06 M74.5,36C65.39,36,58,43.39,58,52.5S65.39,69,74.5,69S91,61.61,91,52.5S83.61,36,74.5,36L74.5,36z"/>
</g>
</svg>
