<?xml version="1.0" encoding="utf-8"?>
<!-- Generator: Adobe Illustrator 24.3.0, SVG Export Plug-In . SVG Version: 6.00 Build 0)  -->
<svg version="1.1" id="Layer_1" xmlns="http://www.w3.org/2000/svg" xmlns:xlink="http://www.w3.org/1999/xlink" x="0px" y="0px"
	 viewBox="0 0 144 144" style="enable-background:new 0 0 144 144;" xml:space="preserve">
<style type="text/css">
	.st0{fill:#83759D;}
	.st1{fill:#FFFFFF;}
</style>
<g>
	<path class="st0" d="M46.35,72.98C41.86,66.81,39.5,59.58,39.5,52c0-19.57,15.93-35.5,35.5-35.5c19.58,0,35.5,15.93,35.5,35.5
		c0,7.58-2.36,14.81-6.81,20.93L75,124.25L46.35,72.98z"/>
	<path class="st0" d="M75,17c19.3,0,35,15.7,35,35c0,7.47-2.32,14.61-6.72,20.63l-0.04,0.05l-0.03,0.05L75,123.23l-28.22-50.5
		l-0.03-0.05l-0.04-0.05C42.32,66.61,40,59.47,40,52C40,32.7,55.7,17,75,17 M75,16c-19.88,0-36,16.12-36,36
		c0,7.93,2.57,15.27,6.91,21.22L75,125.28l29.09-52.06C108.43,67.27,111,59.93,111,52C111,32.12,94.88,16,75,16L75,16z"/>
</g>
<g>
	<circle class="st1" cx="75.5" cy="51.5" r="15.97"/>
	<path class="st0" d="M75.5,36.06c8.51,0,15.44,6.92,15.44,15.44S84.01,66.94,75.5,66.94S60.06,60.01,60.06,51.5
		S66.99,36.06,75.5,36.06 M75.5,35C66.39,35,59,42.39,59,51.5S66.39,68,75.5,68S92,60.61,92,51.5S84.61,35,75.5,35L75.5,35z"/>
</g>
</svg>
