<?xml version="1.0" encoding="utf-8"?>
<!-- Generator: Adobe Illustrator 24.3.0, SVG Export Plug-In . SVG Version: 6.00 Build 0)  -->
<svg version="1.1" id="Layer_1" xmlns="http://www.w3.org/2000/svg" xmlns:xlink="http://www.w3.org/1999/xlink" x="0px" y="0px"
	 viewBox="0 0 144 144" style="enable-background:new 0 0 144 144;" xml:space="preserve">
<style type="text/css">
	.st0{fill:#0B0900;}
	.st1{fill:#FFFFFF;}
</style>
<g>
	<path class="st0" d="M46.35,73.98C41.86,67.81,39.5,60.58,39.5,53c0-19.58,15.93-35.5,35.5-35.5c19.58,0,35.5,15.92,35.5,35.5
		c0,7.58-2.36,14.81-6.81,20.92L75,125.25L46.35,73.98z"/>
	<path class="st0" d="M75,18c19.3,0,35,15.7,35,35c0,7.47-2.32,14.61-6.72,20.63l-0.04,0.05l-0.03,0.05L75,124.23l-28.22-50.5
		l-0.03-0.05l-0.04-0.05C42.32,67.61,40,60.47,40,53C40,33.7,55.7,18,75,18 M75,17c-19.88,0-36,16.12-36,36
		c0,7.93,2.57,15.27,6.91,21.22L75,126.28l29.09-52.06C108.43,68.27,111,60.93,111,53C111,33.12,94.88,17,75,17L75,17z"/>
</g>
<g>
	<circle class="st1" cx="75.5" cy="52.5" r="15.97"/>
	<path class="st0" d="M75.5,37.06c8.51,0,15.44,6.92,15.44,15.44S84.01,67.94,75.5,67.94S60.06,61.01,60.06,52.5
		S66.99,37.06,75.5,37.06 M75.5,36C66.39,36,59,43.39,59,52.5S66.39,69,75.5,69S92,61.61,92,52.5S84.61,36,75.5,36L75.5,36z"/>
</g>
</svg>
