<?xml version="1.0" encoding="utf-8"?>
<!-- Generator: Adobe Illustrator 24.3.0, SVG Export Plug-In . SVG Version: 6.00 Build 0)  -->
<svg version="1.1" id="Layer_1" xmlns="http://www.w3.org/2000/svg" xmlns:xlink="http://www.w3.org/1999/xlink" x="0px" y="0px"
	 viewBox="0 0 144 144" style="enable-background:new 0 0 144 144;" xml:space="preserve">
<style type="text/css">
	.st0{fill:#629CA4;}
	.st1{fill:#FFFFFF;}
</style>
<g>
	<path class="st0" d="M43.35,76.98C38.86,70.81,36.5,63.58,36.5,56c0-19.57,15.93-35.5,35.5-35.5s35.5,15.93,35.5,35.5
		c0,7.58-2.36,14.81-6.81,20.92L72,128.25L43.35,76.98z"/>
	<path class="st0" d="M72,21c19.3,0,35,15.7,35,35c0,7.47-2.32,14.61-6.72,20.63l-0.04,0.05l-0.03,0.05L72,127.23l-28.22-50.5
		l-0.03-0.05l-0.04-0.05C39.32,70.61,37,63.47,37,56C37,36.7,52.7,21,72,21 M72,20c-19.88,0-36,16.12-36,36
		c0,7.93,2.57,15.27,6.91,21.22L72,129.28l29.09-52.06C105.43,71.27,108,63.93,108,56C108,36.12,91.88,20,72,20L72,20z"/>
</g>
<g>
	<circle class="st1" cx="72.5" cy="55.5" r="15.97"/>
	<path class="st0" d="M72.5,40.06c8.51,0,15.44,6.92,15.44,15.44S81.01,70.94,72.5,70.94S57.06,64.01,57.06,55.5
		S63.99,40.06,72.5,40.06 M72.5,39C63.39,39,56,46.39,56,55.5S63.39,72,72.5,72S89,64.61,89,55.5S81.61,39,72.5,39L72.5,39z"/>
</g>
</svg>
