<?xml version="1.0" encoding="utf-8"?>
<!-- Generator: Adobe Illustrator 24.3.0, SVG Export Plug-In . SVG Version: 6.00 Build 0)  -->
<svg version="1.1" id="Layer_1" xmlns="http://www.w3.org/2000/svg" xmlns:xlink="http://www.w3.org/1999/xlink" x="0px" y="0px"
	 viewBox="0 0 144 144" style="enable-background:new 0 0 144 144;" xml:space="preserve">
<style type="text/css">
	.st0{fill:#E1726A;}
	.st1{fill:#FFFFFF;}
</style>
<g>
	<path class="st0" d="M47.35,76.98C42.86,70.81,40.5,63.58,40.5,56c0-19.57,15.92-35.5,35.5-35.5s35.5,15.93,35.5,35.5
		c0,7.58-2.36,14.81-6.81,20.93L76,128.25L47.35,76.98z"/>
	<path class="st0" d="M76,21c19.3,0,35,15.7,35,35c0,7.47-2.32,14.61-6.72,20.63l-0.04,0.05l-0.03,0.05L76,127.23l-28.22-50.5
		l-0.03-0.05l-0.04-0.05C43.32,70.61,41,63.47,41,56C41,36.7,56.7,21,76,21 M76,20c-19.88,0-36,16.12-36,36
		c0,7.93,2.57,15.27,6.91,21.22L76,129.28l29.09-52.06C109.43,71.27,112,63.93,112,56C112,36.12,95.88,20,76,20L76,20z"/>
</g>
<g>
	<circle class="st1" cx="76.5" cy="55.5" r="15.97"/>
	<path class="st0" d="M76.5,40.06c8.51,0,15.44,6.92,15.44,15.44S85.01,70.94,76.5,70.94S61.06,64.01,61.06,55.5
		S67.99,40.06,76.5,40.06 M76.5,39C67.39,39,60,46.39,60,55.5S67.39,72,76.5,72S93,64.61,93,55.5S85.61,39,76.5,39L76.5,39z"/>
</g>
</svg>
