<?xml version="1.0" encoding="utf-8"?>
<!-- Generator: Adobe Illustrator 24.3.0, SVG Export Plug-In . SVG Version: 6.00 Build 0)  -->
<svg version="1.1" id="Layer_1" xmlns="http://www.w3.org/2000/svg" xmlns:xlink="http://www.w3.org/1999/xlink" x="0px" y="0px"
	 viewBox="0 0 144 144" style="enable-background:new 0 0 144 144;" xml:space="preserve">
<style type="text/css">
	.st0{fill:#F1C151;}
	.st1{fill:#FFFFFF;}
</style>
<g>
	<path class="st0" d="M47.35,73.98C42.86,67.81,40.5,60.58,40.5,53c0-19.58,15.93-35.5,35.5-35.5s35.5,15.92,35.5,35.5
		c0,7.58-2.36,14.81-6.81,20.92L76,125.25L47.35,73.98z"/>
	<path class="st0" d="M76,18c19.3,0,35,15.7,35,35c0,7.47-2.32,14.61-6.72,20.63l-0.04,0.05l-0.03,0.05L76,124.23l-28.22-50.5
		l-0.03-0.05l-0.04-0.05C43.32,67.61,41,60.47,41,53C41,33.7,56.7,18,76,18 M76,17c-19.88,0-36,16.12-36,36
		c0,7.93,2.57,15.27,6.91,21.22L76,126.28l29.09-52.06C109.43,68.27,112,60.93,112,53C112,33.12,95.88,17,76,17L76,17z"/>
</g>
<g>
	<circle class="st1" cx="76.5" cy="52.5" r="15.97"/>
	<path class="st0" d="M76.5,37.06c8.51,0,15.44,6.92,15.44,15.44S85.01,67.94,76.5,67.94S61.06,61.01,61.06,52.5
		S67.99,37.06,76.5,37.06 M76.5,36C67.39,36,60,43.39,60,52.5S67.39,69,76.5,69S93,61.61,93,52.5S85.61,36,76.5,36L76.5,36z"/>
</g>
</svg>
